# xmcd
#
# Track frame offsets:
# 150
# 14978
# 29562
# 44361
# 52700
# 65828
# 80723
# 100580
# 113179
# 130304
# 151977
# 163794
# 174783
# 182176
#
# Disc length: 2626 seconds
#
#
# Revision: 0
# Processed by: cddbd v1.5.1PL2 Copyright (c) Steve Scherf et al.
# Submitted via: FreeRIP 2.945 
#
DISCID=bc0a400e
DTITLE=Ed Gerhard - Sunnyland
DYEAR=1900
DGENRE=Instrumental
TTITLE0=Avalon Train
TTITLE1=5 to 99
TTITLE2=Either Way She Walks
TTITLE3=Sunnyland
TTITLE4=Just a Closer Walk with Thee
TTITLE5=Sunday Blues
TTITLE6=Just Can't Keep from Crying Sometimes
TTITLE7=Amazing Grace
TTITLE8=Night Owl Blues
TTITLE9=Still Not Sorry You're Gone
TTITLE10=Sunnyland (reprise)
TTITLE11=Little Road
TTITLE12=Sunday Street Stroll
TTITLE13=Not Blind in Heaven
EXTD=
EXTT0=
EXTT1=
EXTT2=
EXTT3=
EXTT4=
EXTT5=
EXTT6=
EXTT7=
EXTT8=
EXTT9=
EXTT10=
EXTT11=
EXTT12=
EXTT13=
PLAYORDER=
